PathFileType	3	(X/Y/Z)	C:\Users\koon_\Desktop\
DataRate	CameraRate	NumFrames	NumMarkers	Units	OrigDataRate	OrigDataStartFrame	OrigNumFrames
100.0	100.0	7	27	mm	100.0	3922	4482	
Frame#	Time	get:LFHD			get:RFHD			get:LBHD			get:RBHD			get:C7			get:T10			get:CLAV			get:STRN			get:RBAK			get:LSHO			get:LUPA			get:LELB			get:LFRA			get:LWRA			get:LWRB			get:LFIN			get:RSHO			get:RUPA			get:RELB			get:RFRA			get:RWRA			get:RWRB			get:RFIN			get:LASI			get:RASI			get:LPSI			get:RPSI			
		X1	Y1	Z1	X2	Y2	Z2	X3	Y3	Z3	X4	Y4	Z4	X5	Y5	Z5	X6	Y6	Z6	X7	Y7	Z7	X8	Y8	Z8	X9	Y9	Z9	X10	Y10	Z10	X11	Y11	Z11	X12	Y12	Z12	X13	Y13	Z13	X14	Y14	Z14	X15	Y15	Z15	X16	Y16	Z16	X17	Y17	Z17	X18	Y18	Z18	X19	Y19	Z19	X20	Y20	Z20	X21	Y21	Z21	X22	Y22	Z22	X23	Y23	Z23	X24	Y24	Z24	X25	Y25	Z25	X26	Y26	Z26	X27	Y27	Z27	
3922	39.21	59.584156	1574.3903	-43.279846	-91.328232	1555.9485	-4.5821443	23.710688	1567.8456	-163.26033	-102.60961	1563.7449	-149.50623	-75.671989	1380.6449	-176.17813	-87.528549	1125.5486	-229.37447	25.108982	1298.7195	-26.817726	49.045921	1108.8657	-6.6536884	-162.24585	1315.8168	-162.37651	93.172768	1378.0558	-202.92952	130.27582	1262.1722	-301.0997	114.58793	1130.1495	-401.70813	237.82809	1151.093	-397.54321	327.18167	1126.6835	-407.92267	307.08191	1128.7987	-476.34927	401.25668	1150.9744	-467.14682	-149.43854	1363.7397	-27.228365	-198.25383	1209.214	102.47748	-223.09486	1114.4825	146.74016	-168.20474	1199.3478	123.68262	-57.722309	1280.6626	92.063599	-43.776539	1267.2277	164.03944	-15.053151	1349.3391	118.50756	132.64267	935.04871	-94.958191	-133.66559	909.19324	-12.861822	-9.6250706	961.24951	-261.26349	-111.37497	947.65961	-227.84715
3923	39.22	57.948219	1574.5439	-43.395741	-93.232018	1556.4359	-5.674439	22.954245	1567.5671	-163.63895	-103.45412	1563.7223	-150.81346	-75.351501	1380.5676	-177.10602	-86.597443	1125.4155	-229.93597	22.351374	1298.6779	-25.797951	46.478806	1108.8212	-5.0308633	-162.2578	1315.7086	-164.55579	94.346313	1377.8906	-200.15352	137.16609	1262.717	-296.4426	130.01909	1130.0125	-396.57834	252.24548	1154.6641	-386.03592	342.67902	1132.665	-390.55115	326.87549	1134.6888	-462.06512	419.28162	1158.1842	-446.81659	-151.64656	1363.7915	-29.174566	-201.76447	1209.5468	100.12724	-226.98154	1114.8674	144.28351	-171.99596	1199.7917	121.77715	-61.314991	1281.254	91.117897	-48.113766	1267.9928	163.32925	-18.95196	1350.0193	117.92422	131.63818	935.08148	-93.341301	-135.04797	909.21558	-13.292373	-9.0223904	961.24249	-260.73349	-111.10659	947.64172	-228.05896
3924	39.23	56.310219	1574.6805	-43.49427	-95.169685	1556.8662	-6.8325543	22.18368	1567.3447	-163.95905	-104.32729	1563.7039	-152.14397	-75.126472	1380.4357	-178.05699	-85.57354	1125.2653	-230.5677	19.237469	1298.6117	-25.061396	43.776375	1108.8152	-3.5561936	-162.33951	1315.2499	-166.58475	95.415321	1377.8462	-197.2151	144.25241	1263.4833	-291.28308	145.99689	1130.412	-390.52277	266.80222	1158.3936	-372.66187	357.73257	1139.0455	-372.13977	346.01291	1140.0646	-443.99698	436.89236	1166.0659	-422.98441	-153.95842	1363.7915	-31.247629	-205.54066	1209.8593	97.369934	-231.00043	1115.243	141.55989	-175.9729	1200.2712	119.47993	-65.130745	1281.8595	90.006927	-52.674065	1268.7717	162.45378	-22.996878	1350.7794	117.10978	130.86871	935.01538	-91.53196	-136.51256	909.19702	-13.795161	-8.35954	961.16754	-260.14215	-110.82831	947.5304	-228.25223
3925	39.24	54.724262	1574.757	-43.608528	-97.076653	1557.2585	-8.0334625	21.458326	1567.1691	-164.31512	-105.22699	1563.693	-153.17566	-74.790932	1380.326	-179.17838	-84.487251	1125.1062	-231.26224	15.957611	1298.5156	-24.378897	40.928867	1108.8354	-1.9930422	-162.50313	1315.21	-169.32329	96.425652	1377.8584	-194.27829	151.44199	1264.5459	-285.6329	162.37648	1130.8948	-382.76062	280.8465	1162.7017	-358.49915	372.00323	1145.9442	-352.33313	364.41168	1146.3427	-423.6347	453.41544	1175.0327	-397.78818	-156.23567	1363.8085	-33.61483	-209.39233	1210.2028	94.368416	-235.08376	1115.6428	138.64824	-179.97272	1200.7667	117.17839	-69.050743	1282.5139	88.720406	-57.338608	1269.5996	161.40277	-27.165905	1351.5647	116.20807	130.0408	934.90088	-89.778404	-138.03963	909.21973	-14.395473	-7.6619072	961.12579	-259.65952	-110.49505	947.46631	-228.56566
3926	39.25	53.143391	1574.7643	-43.72794	-98.929771	1557.5535	-9.2950144	20.846237	1567.028	-164.6767	-105.93387	1563.7931	-154.58984	-74.63105	1379.7771	-179.93733	-83.256836	1124.7998	-231.95172	13.24022	1298.479	-23.583906	38.058365	1108.8237	-0.57483631	-162.16611	1314.761	-171.58777	97.397522	1377.9155	-191.20302	158.64838	1265.8315	-279.5087	178.76767	1132.0099	-374.30463	294.63522	1167.8004	-342.88043	385.15451	1154.2184	-330.91898	382.50473	1154.1521	-403.00903	468.61984	1185.281	-370.94858	-158.46913	1363.8948	-36.27861	-213.28604	1210.5746	91.11953	-239.32185	1116.0391	135.40294	-184.12401	1201.2865	114.67322	-73.10997	1283.1696	87.307449	-62.14238	1270.429	160.22533	-31.514845	1352.3564	115.23593	129.20399	934.76251	-87.904205	-139.56415	909.28156	-14.942509	-6.9664159	960.9621	-259.06436	-110.1498	947.37781	-228.88004
3927	39.26	51.65974	1574.7074	-43.828304	-100.68101	1557.8689	-10.55786	20.291706	1566.8846	-164.97375	-106.56131	1563.9612	-155.92664	-73.965012	1379.6749	-181.25674	-81.983665	1124.6434	-232.72513	10.701327	1297.83	-22.582827	35.059902	1108.8137	0.83227563	-161.83617	1314.538	-174.34795	98.451836	1377.9821	-188.04111	166.04219	1267.2148	-272.64511	195.07153	1134.0192	-365.28656	307.48813	1173.5459	-326.26938	397.16989	1163.2087	-308.13998	399.25574	1162.4762	-379.69919	482.22003	1196.5341	-342.24887	-160.66434	1363.9946	-39.095459	-217.25467	1210.9042	87.566574	-243.65739	1116.4568	131.92546	-188.38956	1201.7843	111.74979	-77.070885	1283.967	85.640411	-67.108543	1271.1841	158.84726	-36.055344	1353.064	114.0946	128.37524	934.63989	-86.142517	-141.20007	909.2804	-15.738716	-6.1395121	960.95099	-258.70657	-109.77617	947.31	-229.29271
3928	39.27	50.238701	1574.6045	-43.956291	-102.36482	1558.1965	-11.895288	19.874821	1566.7665	-165.26685	-107.06676	1564.2559	-157.46255	-73.231857	1379.3783	-182.42235	-80.486557	1124.4509	-233.58795	10.564185	1298.1368	-21.269449	31.998344	1108.8276	2.0186815	-161.43144	1314.2905	-177.26605	99.376205	1378.0736	-184.81378	173.07051	1269.0427	-265.63477	211.52139	1136.1328	-355.10474	319.50815	1179.8986	-308.44681	408.19604	1172.8983	-282.41434	415.1665	1171.5542	-354.70157	494.06699	1208.7308	-311.64282	-162.88258	1364.1544	-42.384563	-221.22403	1211.2439	83.845512	-248.06923	1116.8739	128.16914	-192.68056	1202.2848	108.68966	-81.094681	1284.7838	83.834869	-72.137589	1271.9587	157.3307	-40.460823	1353.7439	112.86146	127.46123	934.54608	-84.268074	-142.77473	909.32092	-16.486088	-5.3696694	960.73645	-258.17593	-109.35658	947.15619	-229.7576
